HIERARCHY
ROOT Pelvis
{
	OFFSET 0.000000 0.000000 0.000000
	CHANNELS 6 Xposition Yposition Zposition Xrotation Yrotation Zrotation
	JOINT LeftUpLeg_virtual
	{
		OFFSET 0.000000 0.000000 0.000000
		CHANNELS 3 Xrotation Yrotation Zrotation
		JOINT LeftUpLeg
		{
			OFFSET 18.735201 -5.666702 -4.541200
			CHANNELS 3 Xrotation Yrotation Zrotation
			JOINT LeftLeg
			{
				OFFSET -0.021200 -31.938179 0.493100
				CHANNELS 3 Xrotation Yrotation Zrotation
				JOINT LeftFoot
				{
					OFFSET 0.021200 -31.938179 -4.336299
					CHANNELS 3 Xrotation Yrotation Zrotation
					JOINT LeftToeBase
					{
						OFFSET 0.943001 -26.722000 15.023500
						CHANNELS 3 Xrotation Yrotation Zrotation
						End Site
						{
							OFFSET 0 0 0
						}
					}
				}
			}
		}
	}
	JOINT RightUpLeg_virtual
	{
		OFFSET 0.000000 0.000000 0.000000
		CHANNELS 3 Xrotation Yrotation Zrotation
		JOINT RightUpLeg
		{
			OFFSET -18.735201 -5.666702 -4.541200
			CHANNELS 3 Xrotation Yrotation Zrotation
			JOINT RightLeg
			{
				OFFSET 0.018946 -31.938133 0.493100
				CHANNELS 3 Xrotation Yrotation Zrotation
				JOINT RightFoot
				{
					OFFSET -0.018946 -31.938126 -4.336299
					CHANNELS 3 Xrotation Yrotation Zrotation
					JOINT RightToeBase
					{
						OFFSET -0.943001 -26.722004 15.023500
						CHANNELS 3 Xrotation Yrotation Zrotation
						End Site
						{
							OFFSET 0 0 0
						}
					}
				}
			}
		}
	}
	JOINT Hips_virtual
	{
		OFFSET 0.000000 0.000000 0.000000
		CHANNELS 3 Xrotation Yrotation Zrotation
		JOINT Hips
		{
			OFFSET -0.000000 -0.000000 -0.000000
			CHANNELS 3 Xrotation Yrotation Zrotation
			JOINT Spine
			{
				OFFSET 0.000000 10.199997 -0.299500
				CHANNELS 3 Xrotation Yrotation Zrotation
				JOINT Spine1
				{
					OFFSET 0.000000 11.900002 -1.516600
					CHANNELS 3 Xrotation Yrotation Zrotation
					JOINT Spine2
					{
						OFFSET 0.000000 13.600006 -2.842500
						CHANNELS 3 Xrotation Yrotation Zrotation
						JOINT Neck_virtual
						{
							OFFSET 0.000000 0.000000 0.000000
							CHANNELS 3 Xrotation Yrotation Zrotation
							JOINT Neck
							{
								OFFSET 0.000000 9.624100 -2.890100
								CHANNELS 3 Xrotation Yrotation Zrotation
								JOINT Head
								{
									OFFSET 0.000000 14.068802 -1.351900
									CHANNELS 3 Xrotation Yrotation Zrotation
									End Site
									{
										OFFSET 0 0 0
									}
								}
							}
						}
						JOINT LeftShoulder_virtual
						{
							OFFSET 0.000000 0.000000 0.000000
							CHANNELS 3 Xrotation Yrotation Zrotation
							JOINT LeftShoulder
							{
								OFFSET 15.263000 10.923401 -0.547700
								CHANNELS 3 Xrotation Yrotation Zrotation
								JOINT LeftArm
								{
									OFFSET 25.438599 -2.830597 -13.032500
									CHANNELS 3 Xrotation Yrotation Zrotation
									JOINT LeftForeArm
									{
										OFFSET 29.960503 0.000000 0.000000
										CHANNELS 3 Xrotation Yrotation Zrotation
										JOINT LeftHand
										{
											OFFSET 27.849251 0.000000 0.000000
											CHANNELS 3 Xrotation Yrotation Zrotation
											End Site
											{
												OFFSET 0 0 0
											}
										}
									}
								}
							}
						}
						JOINT RightShoulder_virtual
						{
							OFFSET 0.000000 0.000000 0.000000
							CHANNELS 3 Xrotation Yrotation Zrotation
							JOINT RightShoulder
							{
								OFFSET -15.263000 10.923401 -0.547700
								CHANNELS 3 Xrotation Yrotation Zrotation
								JOINT RightArm
								{
									OFFSET -25.438599 -2.830597 -13.032500
									CHANNELS 3 Xrotation Yrotation Zrotation
									JOINT RightForeArm
									{
										OFFSET -29.960503 0.000000 0.000000
										CHANNELS 3 Xrotation Yrotation Zrotation
										JOINT RightHand
										{
											OFFSET -27.849251 0.000000 0.000000
											CHANNELS 3 Xrotation Yrotation Zrotation
											End Site
											{
												OFFSET 0 0 0
											}
										}
									}
								}
							}
						}
					}
				}
			}
		}
	}
}
MOTION
Frames: 4
Frame Time: 0.03333333
-3.916322 83.273758 2.332647 0.000000 0.000000 0.000000 3.004780 -58.203232 6.441633 -38.301751 6.319709 29.636225 47.032826 -9.812354 -10.643529 -10.045131 -1.887121 -11.913890 0.000000 0.000000 0.000000 3.004780 -58.203232 6.441633 -34.548367 -3.820582 -30.692220 55.036093 4.454433 -7.825976 -22.925311 0.235330 25.816710 0.000000 0.000000 0.000000 3.004780 -58.203232 6.441633 0.000000 0.000001 0.000000 11.191383 0.081138 -2.660832 8.434599 0.027694 -5.592319 0.000000 0.000000 0.000000 8.457028 0.027845 -5.591854 -3.775902 5.323433 1.581292 0.000000 0.000000 0.000000 8.457028 0.027845 -5.591854 -6.221668 -11.503855 -4.023824 -23.062125 9.568605 -36.639628 0.046110 -43.169261 -0.011183 0.000000 0.000000 0.000000 8.457028 0.027845 -5.591854 -5.488241 10.658287 2.466534 -41.473807 -26.755535 30.078958 -155.044584 68.136854 156.691616 0.000000 0.000000 0.000000 
-4.060534 83.274994 2.374369 0.000000 0.000000 0.000000 1.342234 -58.477798 4.800572 -37.422958 6.251340 30.159161 47.508713 -10.075898 -10.746652 -10.548176 -1.822958 -11.939142 0.000000 0.000000 0.000000 1.342234 -58.477798 4.800572 -33.710289 -4.211405 -30.634536 55.111318 4.922916 -7.808499 -23.122718 0.253187 25.582847 0.000000 0.000000 0.000000 1.342234 -58.477798 4.800572 0.000000 -0.000001 0.000000 10.938434 -0.105047 -2.440395 7.815271 -0.326008 -5.179808 0.000000 0.000000 0.000000 7.841708 -0.289958 -5.218251 -2.905278 5.233679 1.619017 0.000000 0.000000 0.000000 7.841708 -0.289958 -5.218251 -6.685499 -11.300287 -5.194095 -20.846110 10.084640 -34.890881 4.501466 -44.384543 0.854206 0.000000 0.000000 0.000000 7.841708 -0.289958 -5.218251 -5.634358 10.125341 2.634044 -41.005618 -24.756280 29.332183 -155.556288 69.489668 157.764215 0.000000 0.000000 0.000000 
-4.296850 83.242386 2.575123 0.000000 0.000000 0.000000 -0.235556 -58.856485 3.222456 -36.453109 6.183943 30.696421 48.249949 -10.292524 -10.883859 -11.415911 -1.730035 -11.950234 0.000000 0.000000 0.000000 -0.235556 -58.856485 3.222456 -32.834225 -4.571808 -30.673751 55.122881 5.548860 -7.774336 -23.369868 0.248146 25.397061 0.000000 0.000000 0.000000 -0.235556 -58.856485 3.222456 0.000000 0.000001 0.000000 10.331077 -0.513731 -1.883554 6.356267 -1.115938 -4.166069 0.000000 0.000000 0.000000 6.388321 -1.004151 -4.289062 -0.940376 5.016487 1.729113 0.000000 0.000000 0.000000 6.388321 -1.004151 -4.289062 -7.444595 -11.224858 -7.938095 -17.825467 12.833959 -32.921181 9.087165 -48.058321 1.764682 0.000000 0.000000 0.000000 6.388321 -1.004151 -4.289062 -5.983466 8.827084 3.075376 -38.745884 -19.254843 28.392005 -159.791306 70.132485 163.700100 0.000000 0.000000 0.000000 
-4.802337 83.218819 3.032257 0.000000 0.000000 0.000000 -1.831374 -58.798933 1.703653 -35.359421 6.211885 31.074837 48.897300 -10.875157 -11.051662 -12.465806 -1.642943 -11.802806 0.000000 0.000000 0.000000 -1.831374 -58.798933 1.703653 -31.257794 -5.152492 -30.963840 54.905971 5.925413 -7.738258 -24.018360 0.066550 25.503744 0.000000 0.000000 0.000000 -1.831374 -58.798933 1.703653 0.000000 0.000001 0.000000 9.558413 -0.976572 -1.145770 4.553881 -2.005590 -2.831331 0.000000 0.000000 0.000000 4.585544 -1.818066 -3.044924 1.320782 4.720353 1.900784 0.000000 0.000000 0.000000 4.585544 -1.818066 -3.044924 -8.310468 -11.099488 -11.307725 -14.786342 15.433456 -31.237187 14.384670 -52.081391 3.335655 0.000000 0.000000 0.000000 4.585544 -1.818066 -3.044924 -6.427617 7.045153 3.807187 -35.653806 -12.738065 26.064688 -166.178421 69.081558 172.530537 0.000000 0.000000 0.000000 
